<?xml version="1.0" standalone="no"?><!DOCTYPE svg PUBLIC "-//W3C//DTD SVG 1.1//EN" "http://www.w3.org/Graphics/SVG/1.1/DTD/svg11.dtd"><svg t="1709108499604" class="icon" viewBox="0 0 1024 1024" version="1.1" xmlns="http://www.w3.org/2000/svg" p-id="16743" xmlns:xlink="http://www.w3.org/1999/xlink" width="200" height="200"><path d="M87.2 724.8c188 312 465.6 288.8 725.6 236 80-16 128-116.8 60-230.4-34.4-52-99.2-75.2-158.4-56C504 742.4 264 710.4 91.2 622.4c-28.8-14.4-58.4 18.4-40.8 45.6l36.8 56.8z" fill="#FF5576" p-id="16744"></path><path d="M733.6 928.8c-8-18.4-26.4-28.8-46.4-26.4-168 24.8-317.6 8.8-460-100.8-52.8-40.8-78.4 6.4-48.8 38.4 148 159.2 334.4 172.8 520 148 28.8-3.2 46.4-32.8 35.2-59.2z" fill="#C95065" p-id="16745"></path><path d="M757.961598 832.574707a131.2 74.4 79.705 1 0 146.404415-26.592994 131.2 74.4 79.705 1 0-146.404415 26.592994Z" fill="#52DDB2" p-id="16746"></path><path d="M552 1016c-178.4 0-352.8-60-484.8-279.2l-36.8-56c-14.4-21.6-12-48.8 4.8-68 16.8-19.2 44-24 66.4-12.8 182.4 92.8 414.4 112 604.8 49.6 68.8-22.4 145.6 4.8 185.6 65.6 7.2 11.2 4 25.6-7.2 33.6-11.2 7.2-25.6 4-33.6-7.2-28-43.2-82.4-62.4-130.4-46.4-201.6 65.6-448 45.6-641.6-52.8-3.2-1.6-6.4-0.8-8.8 1.6-1.6 2.4-3.2 5.6-0.8 9.6l36.8 56s0 0.8 0.8 0.8c181.6 301.6 445.6 276.8 700 224.8 28.8-5.6 52.8-26.4 64.8-55.2 4-10.4 6.4-20.8 8-32.8 0.8-8 0.8-16 0-24.8-0.8-13.6 8.8-24.8 21.6-25.6 13.6-0.8 24.8 8.8 25.6 21.6 0.8 11.2 0.8 22.4 0 33.6-1.6 16-5.6 32-11.2 46.4-18.4 44-54.4 74.4-99.2 84-85.6 19.2-176 33.6-264.8 33.6z" fill="#444B54" p-id="16747"></path><path d="M827.2 974.4c-4 0-8.8-0.8-12-3.2-56.8-34.4-87.2-105.6-80.8-189.6 0.8-13.6 12.8-23.2 25.6-22.4 13.6 0.8 23.2 12.8 22.4 25.6-4.8 65.6 16 119.2 57.6 144 11.2 7.2 15.2 21.6 8 32.8-4.8 8.8-12.8 12.8-20.8 12.8z" fill="#444B54" p-id="16748"></path><path d="M472 782.4c-37.6 0-76-2.4-114.4-7.2-12.8-1.6-22.4-13.6-20.8-26.4 1.6-12.8 13.6-22.4 26.4-20.8 90.4 11.2 183.2 8 268.8-8 12.8-2.4 25.6 6.4 28 19.2 2.4 12.8-6.4 25.6-19.2 28-55.2 10.4-111.2 15.2-168.8 15.2zM268.8 760c-6.4 0-12.8-2.4-16.8-7.2-4.8-4.8-7.2-10.4-7.2-16.8 0-1.6 0-3.2 0.8-4.8s0.8-3.2 1.6-4.8c0.8-1.6 1.6-3.2 2.4-4 0.8-1.6 1.6-2.4 3.2-4 8.8-8.8 24.8-8.8 33.6 0 0.8 0.8 2.4 2.4 3.2 4 0.8 1.6 1.6 2.4 2.4 4 0.8 1.6 0.8 3.2 1.6 4.8s0.8 3.2 0.8 4.8c0 6.4-2.4 12.8-7.2 16.8-6.4 4.8-12 7.2-18.4 7.2z" fill="#FFFFFF" p-id="16749"></path><path d="M857.6 883.2c-12.8 0-24-10.4-24-24 0-21.6 11.2-40.8 35.2-56 22.4-15.2 48-22.4 87.2-24.8l28-4c12.8-1.6 25.6 7.2 27.2 20 1.6 12.8-7.2 25.6-20 27.2l-28.8 4h-2.4c-30.4 1.6-49.6 6.4-64.8 16.8-8.8 5.6-13.6 11.2-13.6 15.2 0 15.2-10.4 25.6-24 25.6zM888 1016H232c-13.6 0-24-10.4-24-24s10.4-24 24-24h656c13.6 0 24 10.4 24 24s-10.4 24-24 24zM992 1016c-1.6 0-3.2 0-4.8-0.8-1.6 0-3.2-0.8-4.8-1.6-1.6-0.8-2.4-1.6-4-2.4-1.6-0.8-2.4-1.6-4-3.2l-3.2-3.2c-0.8-1.6-1.6-2.4-2.4-4-0.8-1.6-0.8-3.2-1.6-4.8 0-1.6-0.8-3.2-0.8-4.8 0-6.4 2.4-12.8 7.2-16.8 8.8-8.8 24.8-8.8 33.6 0 4.8 4.8 7.2 10.4 7.2 16.8s-2.4 12.8-7.2 16.8c-2.4 5.6-8.8 8-15.2 8z" fill="#444B54" p-id="16750"></path></svg>